<?xml version="1.0" standalone="no"?><!DOCTYPE svg PUBLIC "-//W3C//DTD SVG 1.1//EN" "http://www.w3.org/Graphics/SVG/1.1/DTD/svg11.dtd"><svg t="1713032901782" class="icon" viewBox="0 0 1024 1024" version="1.1" xmlns="http://www.w3.org/2000/svg" p-id="1713" xmlns:xlink="http://www.w3.org/1999/xlink" width="200" height="200"><path d="M512 0C229.250612 0 0 229.250612 0 512s229.250612 512 512 512 512-229.250612 512-512S794.749388 0 512 0z" fill="#EB6324" p-id="1714"></path><path d="M512 62.693878C263.836735 62.693878 62.693878 263.836735 62.693878 512s201.142857 449.306122 449.306122 449.306122 449.306122-201.142857 449.306122-449.306122S760.163265 62.693878 512 62.693878z" fill="#F49F28" p-id="1715"></path><path d="M114.938776 663.510204c0-182.857143 65.828571-332.8 94.040816-397.061224l57.469388-78.367347 198.530612-94.040817L512 350.040816c-67.918367 36.571429-125.387755 480.653061-125.387755 480.653062C308.244898 606.040816 423.183673 167.183673 423.183673 167.183673 350.040816 208.979592 114.938776 663.510204 114.938776 663.510204z m397.061224-313.469388L559.020408 94.040816l198.530612 94.040817 57.469388 78.367347c28.212245 64.261224 94.040816 214.204082 94.040816 397.061224 0 0-235.102041-454.530612-308.244897-496.326531 0 0 114.938776 438.857143 36.571428 663.510205 0 0-57.469388-444.081633-125.387755-480.653062z" fill="#F7C9A3" p-id="1716"></path><path d="M514.507755 937.06449c2.612245-6.687347 9.299592-86.726531 11.180408-134.373878 1.044898-26.122449 2.821224-57.573878 4.075102-69.903673 4.597551-51.513469 8.150204-115.774694 10.135511-180.349388 1.462857-50.259592 2.821224-71.993469 5.12-80.039184 5.851429-21.106939 15.46449-172.721633 12.538775-199.68-1.358367-13.792653-0.417959-17.240816 5.537959-17.240816 7.732245 0 16.613878 12.016327 39.392653 53.707755 12.225306 22.360816 27.271837 49.110204 33.541225 59.663674 27.480816 45.97551 79.098776 199.366531 94.981224 282.853877 2.194286 11.180408 5.851429 28.943673 8.150204 39.497143 8.359184 38.974694 11.598367 72.202449 13.583674 136.254694 0.835918 28.316735 1.671837 36.466939 4.075102 38.452245 2.403265 2.089796 3.657143 1.671837 6.896326-2.403266 8.150204-10.34449 12.225306-21.106939 19.957551-53.080816 14.001633-57.782857 17.658776-115.983673 11.389388-186.096326-3.239184-36.257959-3.657143-40.124082-13.270204-87.771429-6.687347-34.586122-16.822857-68.022857-32.914286-109.609796-5.433469-14.210612-13.165714-37.511837-17.240816-51.617959-3.866122-14.001633-12.225306-36.884898-18.494694-50.886531-17.345306-39.288163-50.886531-105.430204-59.141224-116.506122-10.866939-14.628571-17.136327-25.39102-15.67347-26.749388 2.403265-2.507755 19.330612 4.179592 47.960817 19.017143 46.18449 23.928163 60.395102 33.854694 104.280816 73.142857 29.466122 26.331429 36.780408 34.690612 59.977143 66.87347 26.644898 36.884898 53.916735 85.159184 73.247347 129.149387 8.463673 19.435102 29.675102 82.02449 33.123265 97.802449 0.940408 5.537959 3.866122 12.852245 6.060408 16.613878 4.075102 6.478367 4.493061 6.687347 6.687347 2.925714 1.462857-2.507755 2.298776-16.091429 2.089796-39.392653-0.20898-32.391837-1.044898-39.288163-8.777143-81.084082-18.285714-98.847347-45.557551-165.302857-93.936326-229.564081-30.92898-40.96-66.45551-74.187755-110.341225-103.131429C701.962449 96.026122 639.268571 71.68 566.334694 58.514286c-29.675102-5.22449-40.437551-6.269388-65.097143-6.269388-32.914286 0.20898-43.467755 1.776327-80.666122 11.911837-77.113469 20.897959-152.659592 64.679184-214.935511 124.447347-93.936327 90.174694-144.927347 200.097959-157.779591 339.487347-1.149388 13.374694-3.030204 30.406531-4.179592 37.929795-1.044898 7.418776-1.880816 18.390204-1.880817 24.241633l0.20898 10.762449 5.642449-6.687347c3.343673-3.866122 8.150204-12.956735 10.971429-20.27102 2.716735-7.418776 9.613061-25.913469 15.04653-40.96 24.659592-66.246531 47.438367-115.043265 75.859592-161.854694 27.480816-45.662041 44.094694-66.66449 81.188571-103.549388 25.182041-25.182041 42.213878-38.556735 67.082449-53.289796 18.285714-10.971429 64.052245-30.406531 68.858776-29.466122 6.373878 1.253878 4.91102 7.941224-5.43347 23.510204-20.58449 31.451429-69.590204 147.121633-79.516734 187.872653-3.239184 13.374694-10.553469 38.556735-16.300408 55.797551-5.642449 17.240816-12.538776 41.900408-15.46449 54.648163-2.821224 12.852245-6.687347 31.033469-8.881633 40.542041-2.089796 9.508571-4.493061 23.092245-5.12 30.406531-0.626939 7.314286-1.985306 18.703673-3.030204 25.39102-5.32898 33.227755-6.060408 157.884082-1.253877 186.409796 0.626939 3.448163 2.089796 12.538776 3.239183 20.27102 1.462857 7.941224 3.343673 17.031837 4.075102 20.271021 9.404082 32.182857 12.852245 41.482449 15.46449 41.482449 3.239184 0 3.448163-2.194286 2.821225-29.779592-0.313469-20.062041 2.925714-78.158367 6.373877-112.013061 3.030204-30.197551 18.285714-104.803265 29.257143-142.942041 22.151837-77.531429 54.439184-158.406531 80.666122-201.769796 8.359184-13.792653 19.121633-32.078367 24.032653-40.333061 18.912653-33.227755 44.094694-72.202449 51.40898-79.725715 12.852245-12.956735 14.628571-10.657959 14.837551 18.912654 0 14.001633 0.835918 28.525714 1.671837 32.600816 0.626939 4.075102 3.030204 36.257959 5.433469 71.993469 2.298776 35.422041 4.91102 71.88898 6.164898 80.875102 1.044898 8.881633 2.821224 34.795102 3.866123 57.678368 1.149388 22.883265 3.030204 51.722449 4.075102 63.843265 1.149388 12.434286 2.821224 47.020408 4.075102 77.00898 2.612245 77.426939 7.836735 166.034286 12.120816 210.755918 4.493061 46.08 5.955918 57.782857 7.105306 59.872653 1.880816 3.030204 4.493061 2.403265 6.164898-1.462857z" fill="#FFFFFF" p-id="1717"></path></svg>